{"title":"Meltdown, Shu Dan Long Wei 1995 DVDrip English Klam","uid":6482627,"size":1315938970,"categoryP":"video","categoryS":"movies","magnet":"?xt=urn:btih:915f4711d16f1e2b98402e8a4af35cba7893d526&amp;dn=Meltdown%2C+Shu+Dan+Long+Wei+1995+DVDrip+English+Klam&amp;tr=udp%3A%2F%2Ftracker.openbittorrent.com%3A80&amp;tr=udp%3A%2F%2Fopen.demonii.com%3A1337&amp;tr=udp%3A%2F%2Ftracker.coppersurfer.tk%3A6969&amp;tr=udp%3A%2F%2Fexodus.desync.com%3A6969","seeders":0,"leechers":1,"uploader":"Klambake","files":-1,"time":1308586003,"description":"With: Jet Li, Jacky Cheung and Charlie Cho\n\nNa een mislukte poging om zijn vrouw te redden van de kwade 'dokter', neemt Kit Li een baan als bodyguard voor de wereldberoemde acteur Frankie Lane. Maar de geschiedenis herhaalt zich en Kit wordt gedwongen zijn verleden onder ogen te zien als De Dokter en zijn gang een poging doen om de Russische kroonjuwelen te stelen door een luxueus hotel te bezetten.\n\nAfter failing to save his wife from 'The Doctor', Kit Li is working as a bodyguard and secret stunt double for the cowardly martial arts film star Frankie Lane...\n\n------------------ Dutch Friends ------------------\n\nYou can find my Friends at: http://www.Film-Test.nl \n                    \n------ They got my dutchs subs ---- and more ------\n\nGeneral:\n\nComplete name                    : Meltdown\\Shu Dan Long Wei.avi\nFormat                           : AVI\nFormat/Info                      : Audio Video Interleave\nFile size                        : 1.23 GiB\nDuration                         : 1h 37mn\nOverall bit rate                 : 1 805 Kbps\n\nVideo:\n\nFormat                           : MPEG-4 Visual\nFormat profile                   : Simple@L3\nFormat settings, BVOP            : No\nFormat settings, QPel            : No\nFormat settings, GMC             : No warppoints\nFormat settings, Matrix          : Default (H.263)\nCodec ID                         : XVID\nCodec ID/Hint                    : XviD\nDuration                         : 1h 37mn\nBit rate                         : 1 347 Kbps\nWidth                            : 652 pixels\nHeight                           : 352 pixels\nDisplay aspect ratio             : 1.852\nFrame rate                       : 25.000 fps\nColor space                      : YUV\nChroma subsampling               : 4:2:0\nBit depth                        : 8 bits\nScan type                        : Progressive\nBits/(Pixel*Frame)               : 0.235\nStream size                      : 936 MiB (75%)\nWriting library                  : XviD 1.1.2 (UTC 2006-11-01)\n\nAudio:\n\nFormat                           : AC-3\nFormat/Info                      : Audio Coding 3\nMode extension                   : CM (complete main)\nCodec ID                         : 2000\nDuration                         : 1h 37mn\nBit rate mode                    : Constant\nBit rate                         : 448 Kbps\nChannel(s)                       : 6 channels\nChannel positions                : Front: L C R, Side: L R, LFE\nSampling rate                    : 48.0 KHz\nBit depth                        : 16 bits\nStream size                      : 311 MiB (25%)\nAlignment                        : Aligned on interleaves\nInterleave, duration             : 32 ms (0.80 video frame)\nInterleave, preload duration     : 1248 ms\n\n\n\n","torrent":{"xt":"urn:btih:915f4711d16f1e2b98402e8a4af35cba7893d526","amp;dn":"Meltdown%2C+Shu+Dan+Long+Wei+1995+DVDrip+English+Klam","amp;tr":["udp%3A%2F%2Ftracker.openbittorrent.com%3A80","udp%3A%2F%2Fopen.demonii.com%3A1337","udp%3A%2F%2Ftracker.coppersurfer.tk%3A6969","udp%3A%2F%2Fexodus.desync.com%3A6969"],"infoHash":"915f4711d16f1e2b98402e8a4af35cba7893d526","infoHashBuffer":{"type":"Buffer","data":[145,95,71,17,209,111,30,43,152,64,46,138,74,243,92,186,120,147,213,38]},"announce":[],"urlList":[]}}